<?xml version="1.0" encoding="UTF-8" standalone="no"?>
<svg
   id="Layer_1"
   data-name="Layer 1"
   viewBox="0 0 1022.41151 360.27348"
   version="1.1"
   sodipodi:docname="Ubuntu-logo-20222.svg"
   inkscape:version="1.2.1 (9c6d41e410, 2022-07-14)"
   xmlns:inkscape="http://www.inkscape.org/namespaces/inkscape"
   xmlns:sodipodi="http://sodipodi.sourceforge.net/DTD/sodipodi-0.dtd"
   xmlns="http://www.w3.org/2000/svg"
   xmlns:svg="http://www.w3.org/2000/svg">
  <sodipodi:namedview
     id="namedview33"
     pagecolor="#505050"
     bordercolor="#ffffff"
     borderopacity="1"
     inkscape:showpageshadow="0"
     inkscape:pageopacity="0"
     inkscape:pagecheckerboard="1"
     inkscape:deskcolor="#505050"
     showgrid="false"
     inkscape:zoom="1"
     inkscape:cx="511"
     inkscape:cy="180"
     inkscape:window-width="1920"
     inkscape:window-height="1019"
     inkscape:window-x="1920"
     inkscape:window-y="0"
     inkscape:window-maximized="1"
     inkscape:current-layer="Layer_1" />
  <defs
     id="defs4">
    <style
       id="style2">.cls-1{fill:#1d1d1b;}.cls-2{fill:#e9500e;}.cls-3{fill:#fff;}</style>
  </defs>
  <path
     class="cls-1"
     d="m 168.87609,150.33831 q -7.87059,0 -13.40217,-2.24472 a 23.077084,21.627256 0 0 1 -8.95368,-6.19999 26.532249,24.865349 0 0 1 -4.96183,-9.24664 46.009856,43.119266 0 0 1 -1.53997,-11.38427 V 74.656601 h 7.75607 v 45.644409 a 36.458256,34.16775 0 0 0 1.53997,10.52877 21.674454,20.312747 0 0 0 4.27756,7.32235 16.682719,15.63462 0 0 0 6.61514,4.27612 26.079996,24.441509 0 0 0 17.33735,0 16.70095,15.651705 0 0 0 6.61561,-4.27612 21.673888,20.312217 0 0 0 4.27708,-7.32235 36.458256,34.16775 0 0 0 1.53998,-10.52877 V 74.656601 h 7.75607 v 46.606089 a 46.029566,43.137738 0 0 1 -1.53951,11.38426 26.532084,24.865195 0 0 1 -4.96182,9.24664 23.094522,21.643598 0 0 1 -8.95367,6.19999 q -5.53371,2.24451 -13.40218,2.24473 z"
     id="path6"
     style="stroke-width:0.468137" />
  <path
     class="cls-1"
     d="m 223.17945,96.784065 q 1.93808,-1.38813 6.21657,-2.939556 a 27.960489,26.203859 0 0 1 10.09413,-1.550328 26.900679,25.210632 0 0 1 11.34934,2.138061 23.597603,22.115073 0 0 1 8.38321,5.986228 28.210376,26.438047 0 0 1 5.18992,9.13955 41.260222,38.66803 0 0 1 1.76807,11.59802 36.96228,34.640109 0 0 1 -2.11045,12.0791 27.740453,25.997647 0 0 1 -5.93086,9.086 25.51083,23.9081 0 0 1 -9.12508,5.71892 31.687176,29.696415 0 0 1 -11.80506,1.97741 q -7.8706,0 -13.00313,-0.96171 a 66.5578,62.376277 0 0 1 -8.44035,-2.0314 V 67.067166 l 7.41369,-1.282795 z m 0,45.430405 a 32.693091,30.639134 0 0 0 5.07564,1.01526 60.958696,57.128939 0 0 0 8.83987,0.48107 q 9.58127,0 15.39833,-5.82556 5.81705,-5.82535 5.81705,-16.72921 a 40.7523,38.192019 0 0 0 -1.02665,-8.71202 21.809782,20.439573 0 0 0 -3.30757,-7.16213 16.578069,15.536544 0 0 0 -5.98847,-4.86341 q -3.70757,-1.816321 -9.18177,-1.817205 a 23.87384,22.373955 0 0 0 -5.01849,0.481074 29.191286,27.357331 0 0 0 -4.44851,1.229021 24.59774,23.052377 0 0 0 -3.5928,1.60344 25.380376,23.785843 0 0 0 -2.56663,1.60343 z"
     id="path8"
     style="stroke-width:0.468137" />
  <path
     class="cls-1"
     d="m 325.95921,146.81057 q -3.30946,0.85704 -8.897,1.9243 a 69.843545,65.455593 0 0 1 -13.68693,1.06881 q -6.6168,0 -11.06412,-1.8172 a 17.957309,16.829133 0 0 1 -7.18608,-5.13073 22.167748,20.775049 0 0 1 -3.9347,-8.01718 47.660704,44.6664 0 0 1 -1.1976,-10.369 V 93.47009 h 7.41369 v 28.75475 a 52.377707,49.087054 0 0 0 0.91237,9.94149 q 0.91166,4.06347 2.96567,6.57395 a 11.574051,10.846906 0 0 0 5.30373,3.6344 23.035366,21.588159 0 0 0 7.92749,1.12236 63.410648,59.426846 0 0 0 9.12463,-0.53463 q 3.87685,-0.53373 4.90468,-0.96171 V 93.47009 h 7.41416 z"
     id="path10"
     style="stroke-width:0.468137" />
  <path
     class="cls-1"
     d="m 343.47696,95.394394 q 3.30663,-0.854387 8.89653,-1.924304 a 69.825169,65.438372 0 0 1 13.68741,-1.068806 q 6.72872,0 11.23507,1.817196 a 17.275194,16.189872 0 0 1 7.1856,5.18428 22.600019,21.180163 0 0 1 3.82137,8.07074 50.063438,46.91818 0 0 1 1.14046,10.36856 v 30.89281 h -7.41416 v -28.64764 a 55.850884,52.342028 0 0 0 -0.85522,-9.94149 17.718471,16.605301 0 0 0 -2.85139,-6.6275 11.092585,10.395689 0 0 0 -5.24706,-3.687946 q -3.25066,-1.121916 -8.15511,-1.12236 a 62.440928,58.518049 0 0 0 -9.06798,0.534627 q -3.82302,0.535729 -4.96183,0.962129 v 48.53019 h -7.41369 z"
     id="path12"
     style="stroke-width:0.468137" />
  <path
     class="cls-1"
     d="m 413.42895,93.47009 h 23.49678 v 5.879121 h -23.49678 v 29.396479 a 31.843781,29.843181 0 0 0 0.8557,7.64277 11.360601,10.646867 0 0 0 2.45234,4.543 7.7622363,7.2745703 0 0 0 3.87803,2.13806 20.634446,19.338078 0 0 0 5.0185,0.53418 q 4.67589,0 7.52798,-1.01525 a 32.70888,30.65393 0 0 0 4.4485,-1.87075 l 1.82474,5.77245 q -1.59806,0.96193 -5.58896,2.19119 a 27.662608,25.924692 0 0 1 -8.66844,1.22947 q -5.47492,0 -9.18177,-1.33613 a 13.268301,12.434714 0 0 1 -5.93133,-4.06192 17.761442,16.645571 0 0 1 -3.13662,-6.78816 50.319413,47.158074 0 0 1 -0.91237,-9.62061 V 77.222187 l 7.4137,-1.282791 z"
     id="path14"
     style="stroke-width:0.468137" />
  <path
     class="cls-1"
     d="m 494.41152,146.81057 q -3.30946,0.85704 -8.89701,1.9243 a 69.843545,65.455593 0 0 1 -13.68693,1.06881 q -6.6168,0 -11.06411,-1.8172 a 17.957294,16.829119 0 0 1 -7.18609,-5.13073 22.167811,20.775108 0 0 1 -3.9347,-8.01718 47.660434,44.666146 0 0 1 -1.1976,-10.369 V 93.47009 h 7.4137 v 28.75475 a 52.377339,49.08671 0 0 0 0.91237,9.94149 q 0.91165,4.06347 2.96567,6.57395 a 11.574075,10.846929 0 0 0 5.30372,3.6344 23.035395,21.588187 0 0 0 7.9275,1.12236 63.410697,59.426892 0 0 0 9.12462,-0.53463 q 3.87685,-0.53373 4.90469,-0.96171 V 93.47009 h 7.41416 z"
     id="path16"
     style="stroke-width:0.468137" />
  <rect
     class="cls-2"
     width="113.12302"
     height="163.27347"
     id="rect18"
     x="0"
     y="0"
     style="stroke-width:0.468137" />
  <ellipse
     class="cls-3"
     cx="24.672478"
     cy="107.76806"
     id="circle20"
     rx="11.871593"
     ry="11.125756"
     style="stroke-width:0.468137" />
  <ellipse
     class="cls-3"
     cx="74.113258"
     cy="83.372231"
     id="circle22"
     rx="11.871593"
     ry="11.125756"
     style="stroke-width:0.468137" />
  <path
     class="cls-3"
     d="m 51.447025,136.40129 a 28.912148,27.09573 0 0 1 -19.716275,-14.09236 17.089588,16.015928 0 0 1 -10.150332,1.16928 38.647753,36.219691 0 0 0 27.824625,21.85462 39.113289,36.65598 0 0 0 8.42996,0.813 16.986694,15.919497 0 0 1 -3.47593,-9.30196 c -0.977752,-0.1018 -1.954339,-0.2505 -2.912048,-0.44258 z"
     id="path24"
     style="stroke-width:0.468137" />
  <ellipse
     class="cls-3"
     cx="71.438637"
     cy="136.46266"
     id="circle26"
     rx="11.871593"
     ry="11.125756"
     style="stroke-width:0.468137" />
  <path
     class="cls-3"
     d="m 87.958508,132.37611 a 38.839978,36.399839 0 0 0 1.946337,-42.708147 17.110933,16.035931 0 0 1 -6.675825,7.327227 29.104698,27.276182 0 0 1 -0.951325,27.09201 17.024098,15.954552 0 0 1 5.680813,8.28891 z"
     id="path28"
     style="stroke-width:0.468137" />
  <path
     class="cls-3"
     d="m 23.756515,91.812663 q 0.451939,-0.02323 0.904342,-0.02301 a 17.132922,16.056538 0 0 1 9.003019,2.402717 28.953721,27.134691 0 0 1 23.313532,-11.685214 17.213732,16.132271 0 0 1 3.601543,-9.022921 39.022218,36.57063 0 0 0 -36.822436,18.328431 z"
     id="path30"
     style="stroke-width:0.468137" />
</svg>
